<svg width="24" height="25" viewBox="0 0 24 25" fill="none" xmlns="http://www.w3.org/2000/svg">
<g clip-path="url(#clip0_5_289)">
<path d="M17.94 18.0953C16.2306 19.3983 14.1491 20.1202 12 20.1553C5 20.1553 1 12.1553 1 12.1553C2.24389 9.83719 3.96914 7.81191 6.06 6.2153M9.9 4.3953C10.5883 4.23418 11.2931 4.15364 12 4.1553C19 4.1553 23 12.1553 23 12.1553C22.393 13.2909 21.6691 14.36 20.84 15.3453M14.12 14.2753C13.8454 14.57 13.5141 14.8065 13.1462 14.9704C12.7782 15.1344 12.3809 15.2226 11.9781 15.2297C11.5753 15.2368 11.1752 15.1627 10.8016 15.0118C10.4281 14.8609 10.0887 14.6363 9.80385 14.3515C9.51897 14.0666 9.29439 13.7272 9.14351 13.3537C8.99262 12.9801 8.91853 12.58 8.92563 12.1772C8.93274 11.7744 9.02091 11.3771 9.18488 11.0091C9.34884 10.6411 9.58525 10.3099 9.88 10.0353" stroke="white" stroke-width="2" stroke-linecap="round" stroke-linejoin="round"/>
<path d="M1 1.15527L23 23.1553" stroke="white" stroke-width="2" stroke-linecap="round" stroke-linejoin="round"/>
</g>
<defs>
<clipPath id="clip0_5_289">
<rect width="24" height="24" fill="white" transform="translate(0 0.155273)"/>
</clipPath>
</defs>
</svg>
